<svg width="16" height="16" viewBox="0 0 16 16" fill="none" xmlns="http://www.w3.org/2000/svg">
<path d="M3.83333 15.5V13.8333H7.16667V11.25C6.48611 11.0972 5.87847 10.809 5.34375 10.3854C4.80903 9.96181 4.41667 9.43056 4.16667 8.79167C3.125 8.66667 2.25347 8.21181 1.55208 7.42708C0.850694 6.64236 0.5 5.72222 0.5 4.66667V3.83333C0.5 3.375 0.663194 2.98264 0.989583 2.65625C1.31597 2.32986 1.70833 2.16667 2.16667 2.16667H3.83333V0.5H12.1667V2.16667H13.8333C14.2917 2.16667 14.684 2.32986 15.0104 2.65625C15.3368 2.98264 15.5 3.375 15.5 3.83333V4.66667C15.5 5.72222 15.1493 6.64236 14.4479 7.42708C13.7465 8.21181 12.875 8.66667 11.8333 8.79167C11.5833 9.43056 11.191 9.96181 10.6562 10.3854C10.1215 10.809 9.51389 11.0972 8.83333 11.25V13.8333H12.1667V15.5H3.83333ZM3.83333 7V3.83333H2.16667V4.66667C2.16667 5.19444 2.31944 5.67014 2.625 6.09375C2.93056 6.51736 3.33333 6.81944 3.83333 7ZM8 9.66667C8.69444 9.66667 9.28472 9.42361 9.77083 8.9375C10.2569 8.45139 10.5 7.86111 10.5 7.16667V2.16667H5.5V7.16667C5.5 7.86111 5.74306 8.45139 6.22917 8.9375C6.71528 9.42361 7.30556 9.66667 8 9.66667ZM12.1667 7C12.6667 6.81944 13.0694 6.51736 13.375 6.09375C13.6806 5.67014 13.8333 5.19444 13.8333 4.66667V3.83333H12.1667V7Z" fill="white"/>
</svg>
