<svg width="243" height="55" viewBox="0 0 243 55" fill="none" xmlns="http://www.w3.org/2000/svg">
<path d="M64.16 14.08H54.48V11.68H76.48V14.08H66.8V40H64.16V14.08ZM81.5453 21.52H83.9453V40H81.5453V21.52ZM80.9453 14.2C80.9453 13.6933 81.1186 13.2667 81.4653 12.92C81.812 12.5733 82.2386 12.4 82.7453 12.4C83.252 12.4 83.6786 12.5733 84.0253 12.92C84.372 13.2667 84.5453 13.6933 84.5453 14.2C84.5453 14.7067 84.372 15.1333 84.0253 15.48C83.6786 15.8267 83.252 16 82.7453 16C82.2386 16 81.812 15.8267 81.4653 15.48C81.1186 15.1333 80.9453 14.7067 80.9453 14.2ZM90.2347 21.52H92.6347V24.76H92.7147C93.088 24.12 93.5547 23.5733 94.1147 23.12C94.6747 22.64 95.2747 22.2533 95.9147 21.96C96.5814 21.64 97.2747 21.4133 97.9947 21.28C98.7147 21.12 99.4214 21.04 100.115 21.04C101.528 21.04 102.821 21.28 103.995 21.76C105.195 22.24 106.221 22.92 107.075 23.8C107.955 24.6533 108.635 25.68 109.115 26.88C109.595 28.0533 109.835 29.3467 109.835 30.76C109.835 32.1733 109.595 33.48 109.115 34.68C108.635 35.8533 107.955 36.88 107.075 37.76C106.221 38.6133 105.195 39.28 103.995 39.76C102.821 40.24 101.528 40.48 100.115 40.48C99.4214 40.48 98.7147 40.4 97.9947 40.24C97.2747 40.1067 96.5814 39.8933 95.9147 39.6C95.2747 39.28 94.6747 38.8933 94.1147 38.44C93.5547 37.96 93.088 37.4 92.7147 36.76H92.6347V49.12H90.2347V21.52ZM92.3947 30.76C92.3947 31.8 92.5947 32.7867 92.9947 33.72C93.3947 34.6267 93.9414 35.4267 94.6347 36.12C95.328 36.7867 96.1414 37.32 97.0747 37.72C98.008 38.12 99.0214 38.32 100.115 38.32C101.235 38.32 102.248 38.12 103.155 37.72C104.061 37.32 104.835 36.7867 105.475 36.12C106.115 35.4267 106.595 34.6267 106.915 33.72C107.261 32.7867 107.435 31.8 107.435 30.76C107.435 29.72 107.261 28.7467 106.915 27.84C106.595 26.9067 106.115 26.1067 105.475 25.44C104.835 24.7467 104.061 24.2 103.155 23.8C102.248 23.4 101.235 23.2 100.115 23.2C99.0214 23.2 98.008 23.4 97.0747 23.8C96.1414 24.2 95.328 24.7467 94.6347 25.44C93.9414 26.1067 93.3947 26.9067 92.9947 27.84C92.5947 28.7467 92.3947 29.72 92.3947 30.76ZM115.208 26.72C115.208 26.3733 115.194 25.96 115.168 25.48C115.141 24.9733 115.114 24.4667 115.088 23.96C115.088 23.4533 115.074 22.9867 115.048 22.56C115.021 22.1067 115.008 21.76 115.008 21.52H117.408C117.434 22.2133 117.448 22.88 117.448 23.52C117.474 24.16 117.514 24.5733 117.568 24.76H117.688C118.168 23.7467 118.968 22.88 120.088 22.16C121.208 21.4133 122.514 21.04 124.008 21.04C125.448 21.04 126.621 21.2667 127.528 21.72C128.434 22.1733 129.141 22.7733 129.648 23.52C130.181 24.24 130.541 25.08 130.728 26.04C130.941 27 131.048 27.9867 131.048 29V40H128.648V29.12C128.648 28.3733 128.581 27.6533 128.448 26.96C128.314 26.24 128.074 25.6 127.728 25.04C127.408 24.48 126.941 24.04 126.328 23.72C125.741 23.3733 124.968 23.2 124.008 23.2C123.128 23.2 122.288 23.36 121.488 23.68C120.714 23.9733 120.034 24.44 119.448 25.08C118.888 25.6933 118.434 26.48 118.088 27.44C117.768 28.3733 117.608 29.48 117.608 30.76V40H115.208V26.72ZM137.834 21.52H140.234V40H137.834V21.52ZM137.234 14.2C137.234 13.6933 137.408 13.2667 137.754 12.92C138.101 12.5733 138.528 12.4 139.034 12.4C139.541 12.4 139.968 12.5733 140.314 12.92C140.661 13.2667 140.834 13.6933 140.834 14.2C140.834 14.7067 140.661 15.1333 140.314 15.48C139.968 15.8267 139.541 16 139.034 16C138.528 16 138.101 15.8267 137.754 15.48C137.408 15.1333 137.234 14.7067 137.234 14.2ZM163.28 20.8V41.16C163.28 42.36 163.2 43.4667 163.04 44.48C162.88 45.52 162.56 46.4133 162.08 47.16C161.626 47.9333 160.973 48.5333 160.12 48.96C159.266 49.3867 158.16 49.6 156.8 49.6C156.346 49.6 155.906 49.5733 155.48 49.52C155.053 49.4667 154.626 49.3733 154.2 49.24L154.56 45.08C154.826 45.1333 155.08 45.1733 155.32 45.2C155.56 45.2533 155.813 45.28 156.08 45.28C156.666 45.28 157.12 45.1467 157.44 44.88C157.786 44.64 158.026 44.32 158.16 43.92C158.32 43.52 158.413 43.08 158.44 42.6C158.466 42.12 158.48 41.6533 158.48 41.2V20.8H163.28ZM157.8 14.28C157.8 13.5067 158.08 12.84 158.64 12.28C159.226 11.6933 159.96 11.4 160.84 11.4C161.72 11.4 162.453 11.68 163.04 12.24C163.653 12.7733 163.96 13.4533 163.96 14.28C163.96 15.1067 163.653 15.8 163.04 16.36C162.453 16.8933 161.72 17.16 160.84 17.16C159.96 17.16 159.226 16.88 158.64 16.32C158.08 15.7333 157.8 15.0533 157.8 14.28ZM168.87 20.8H173.67V40H168.87V20.8ZM168.19 14.28C168.19 13.5067 168.47 12.84 169.03 12.28C169.617 11.6933 170.35 11.4 171.23 11.4C172.11 11.4 172.844 11.68 173.43 12.24C174.044 12.7733 174.35 13.4533 174.35 14.28C174.35 15.1067 174.044 15.8 173.43 16.36C172.844 16.8933 172.11 17.16 171.23 17.16C170.35 17.16 169.617 16.88 169.03 16.32C168.47 15.7333 168.19 15.0533 168.19 14.28ZM179.181 20.8H183.741V23.88H183.821C184.274 22.92 184.968 22.0933 185.901 21.4C186.834 20.68 188.101 20.32 189.701 20.32C190.981 20.32 192.061 20.5333 192.941 20.96C193.848 21.3867 194.581 21.9467 195.141 22.64C195.701 23.3333 196.101 24.1333 196.341 25.04C196.581 25.9467 196.701 26.8933 196.701 27.88V40H191.901V30.28C191.901 29.7467 191.874 29.16 191.821 28.52C191.768 27.8533 191.621 27.24 191.381 26.68C191.168 26.0933 190.821 25.6133 190.341 25.24C189.861 24.84 189.208 24.64 188.381 24.64C187.581 24.64 186.901 24.7733 186.341 25.04C185.808 25.3067 185.354 25.6667 184.981 26.12C184.634 26.5733 184.381 27.0933 184.221 27.68C184.061 28.2667 183.981 28.88 183.981 29.52V40H179.181V20.8ZM214.15 37.36H214.03C213.336 38.4533 212.456 39.2533 211.39 39.76C210.323 40.24 209.15 40.48 207.87 40.48C206.99 40.48 206.123 40.36 205.27 40.12C204.443 39.88 203.696 39.52 203.03 39.04C202.39 38.56 201.87 37.96 201.47 37.24C201.07 36.52 200.87 35.68 200.87 34.72C200.87 33.68 201.056 32.8 201.43 32.08C201.803 31.3333 202.296 30.72 202.91 30.24C203.55 29.7333 204.283 29.3333 205.11 29.04C205.936 28.7467 206.79 28.5333 207.67 28.4C208.576 28.24 209.483 28.1467 210.39 28.12C211.296 28.0667 212.15 28.04 212.95 28.04H214.15V27.52C214.15 26.32 213.736 25.4267 212.91 24.84C212.083 24.2267 211.03 23.92 209.75 23.92C208.736 23.92 207.79 24.1067 206.91 24.48C206.03 24.8267 205.27 25.3067 204.63 25.92L202.11 23.4C203.176 22.3067 204.416 21.52 205.83 21.04C207.27 20.56 208.75 20.32 210.27 20.32C211.63 20.32 212.776 20.48 213.71 20.8C214.643 21.0933 215.416 21.48 216.03 21.96C216.643 22.44 217.11 23 217.43 23.64C217.776 24.2533 218.016 24.88 218.15 25.52C218.31 26.16 218.403 26.7867 218.43 27.4C218.456 27.9867 218.47 28.5067 218.47 28.96V40H214.15V37.36ZM213.87 31.4H212.87C212.203 31.4 211.456 31.4267 210.63 31.48C209.803 31.5333 209.016 31.6667 208.27 31.88C207.55 32.0667 206.936 32.36 206.43 32.76C205.923 33.1333 205.67 33.6667 205.67 34.36C205.67 34.8133 205.763 35.2 205.95 35.52C206.163 35.8133 206.43 36.0667 206.75 36.28C207.07 36.4933 207.43 36.6533 207.83 36.76C208.23 36.84 208.63 36.88 209.03 36.88C210.683 36.88 211.896 36.4933 212.67 35.72C213.47 34.92 213.87 33.84 213.87 32.48V31.4ZM223.634 9.76H228.434V28.76L235.834 20.8H241.994L233.754 29.52L242.514 40H236.154L228.514 30.2H228.434V40H223.634V9.76Z" fill="white"/>
<rect y="8" width="32" height="32" rx="6" fill="url(#paint0_linear_333_768)"/>
<defs>
<linearGradient id="paint0_linear_333_768" x1="32" y1="8" x2="3.8147e-06" y2="40" gradientUnits="userSpaceOnUse">
<stop stop-color="#EC0000"/>
<stop offset="1" stop-color="white"/>
</linearGradient>
</defs>
</svg>
